<svg width="13" height="19" viewBox="0 0 13 19" fill="none" xmlns="http://www.w3.org/2000/svg">
<path d="M12.9998 9.99165L8.93876 7.55645V2.66511L4.46938 0L0 2.68298V12.924L8.53062 18.0406L13 15.3579L12.9998 9.99165ZM8.12212 7.55401L4.87764 9.50172V5.61023L8.12212 3.66252V7.55401ZM8.53044 12.1845L5.28878 10.2384L8.53302 8.29121L11.7752 10.2372L8.53044 12.1845ZM4.46938 0.98048L7.6662 2.95281L4.46613 4.87365L1.22447 2.92788L4.46938 0.98048ZM0.816156 12.4338V3.66258L4.06106 5.6103V10.4999L8.12212 12.9202V16.8154L0.816156 12.4338ZM8.93864 16.8152V12.9232L12.1835 10.9765V14.868L8.93864 16.8152Z" fill="black"/>
</svg>
