<svg width="40" height="38" viewBox="0 0 40 38" fill="none" xmlns="http://www.w3.org/2000/svg">
<g clip-path="url(#clip0_2_31)">
<path d="M12.6354 19.7165L6.24996 19.7139C3.10452 19.7179 6.02242 24.3864 6.02242 24.3864L11.3128 24.3819L16.1722 24.3765L33.1003 24.3597C37.4595 24.3255 32.8898 19.6867 32.8898 19.6867L17.4921 19.7019L12.6354 19.7165Z" fill="url(#paint0_linear_2_31)"/>
<path d="M16.1724 24.3859L13.2534 34.7343C13.0672 35.3998 12.6869 35.9946 12.1609 36.4428C11.635 36.891 10.9874 37.1723 10.3009 37.2506C10.2068 37.254 10.1127 37.2575 10.0187 37.2609C9.37592 37.2845 8.73917 37.1296 8.17906 36.8134C7.61895 36.4972 7.15736 36.032 6.84547 35.4695L6.43459 34.7263C8.09096 37.5996 9.5367 30.693 9.5367 30.693L11.3219 24.3791L12.6442 19.7044L16.9801 4.37171C17.1639 3.71976 17.5176 3.12834 18.005 2.65795C18.4924 2.18757 19.096 1.85511 19.754 1.69459C20.4121 1.53408 21.101 1.55127 21.7503 1.7444C22.3995 1.93753 22.9858 2.29967 23.4491 2.79377L24.5931 4.0117C22.4283 1.78796 21.0675 7.0857 21.0675 7.0857L17.5011 19.6945L16.1724 24.3859Z" fill="url(#paint1_linear_2_31)"/>
<path d="M37.3467 17.6147C37.886 18.1831 38.2465 18.8974 38.3834 19.669C38.5203 20.4405 38.4276 21.2353 38.1168 21.9545C37.806 22.6738 37.2907 23.286 36.635 23.715C35.9793 24.144 35.2121 24.371 34.4285 24.3678L33.1006 24.3691C37.4598 24.3349 32.8902 19.6961 32.8902 19.6961L21.0587 7.09784C21.0587 7.09784 22.4195 1.80011 24.5843 4.02385L24.6211 4.06489L37.3467 17.6147Z" fill="url(#paint2_linear_2_31)"/>
<path d="M6.01544 24.3961L9.52057 30.7054C9.52057 30.7054 8.07483 37.612 6.41846 34.7387C6.41015 34.7221 6.40091 34.7059 6.3908 34.6903L1.35098 25.6163C1.01537 25.0131 0.843054 24.3327 0.851088 23.6425C0.859123 22.9523 1.04723 22.2761 1.39679 21.6809C1.74636 21.0857 2.24527 20.592 2.84416 20.2488C3.44306 19.9056 4.12119 19.7247 4.81146 19.724L6.24767 19.7234C3.1046 19.7274 6.01544 24.3961 6.01544 24.3961Z" fill="url(#paint3_linear_2_31)"/>
</g>
<defs>
<linearGradient id="paint0_linear_2_31" x1="4.79971" y1="22.1707" x2="35.4009" y2="21.9143" gradientUnits="userSpaceOnUse">
<stop stop-color="#6A3795"/>
<stop offset="0.27" stop-color="#5B2F80"/>
<stop offset="0.74" stop-color="#452360"/>
<stop offset="1" stop-color="#3C1E54"/>
</linearGradient>
<linearGradient id="paint1_linear_2_31" x1="12.7361" y1="28.8764" x2="18.1292" y2="10.3808" gradientUnits="userSpaceOnUse">
<stop stop-color="#3C1D54"/>
<stop offset="0.92" stop-color="#ED2490"/>
<stop offset="1" stop-color="#EE4498"/>
</linearGradient>
<linearGradient id="paint2_linear_2_31" x1="23.1967" y1="8.39255" x2="34.904" y2="20.4279" gradientUnits="userSpaceOnUse">
<stop stop-color="#3C1E54"/>
<stop offset="0.26" stop-color="#452360"/>
<stop offset="0.73" stop-color="#5B2F80"/>
<stop offset="1" stop-color="#6A3795"/>
</linearGradient>
<linearGradient id="paint3_linear_2_31" x1="2.57308" y1="20.3895" x2="9.94675" y2="34.0638" gradientUnits="userSpaceOnUse">
<stop stop-color="#3C1E54"/>
<stop offset="0.26" stop-color="#452360"/>
<stop offset="0.73" stop-color="#5B2F80"/>
<stop offset="1" stop-color="#6A3795"/>
</linearGradient>
<clipPath id="clip0_2_31">
<rect width="37.6842" height="35.2654" fill="white" transform="translate(0.0693359 2.34662) rotate(-2.08825)"/>
</clipPath>
</defs>
</svg>
