<svg width="13" height="12" viewBox="0 0 13 12" fill="none" xmlns="http://www.w3.org/2000/svg">
<g clip-path="url(#clip0_2_66)">
<path d="M0.396117 1.70819V10.7859C0.394265 10.894 0.413664 11.0012 0.452852 11.1015C0.492041 11.2017 0.550231 11.2927 0.624226 11.3691C0.698221 11.4455 0.786509 11.5058 0.883539 11.5463C0.980568 11.5867 1.08445 11.6066 1.18907 11.6047H11.8242C11.9284 11.6047 12.0314 11.5835 12.1276 11.5424C12.2238 11.5012 12.3111 11.4409 12.3847 11.3649C12.4584 11.2888 12.5168 11.1986 12.5566 11.0992C12.5965 10.9999 12.617 10.8934 12.617 10.7859V4.13647C12.617 3.91931 12.5334 3.71099 12.3847 3.55743C12.2361 3.40387 12.0345 3.31762 11.8242 3.31762H11.0313" stroke="white" stroke-miterlimit="10"/>
<path d="M1.79081 0.395294H10.3481C10.5294 0.395294 10.7032 0.469664 10.8314 0.602042C10.9596 0.734421 11.0316 0.913965 11.0316 1.10118V3.30353H1.79081C1.42826 3.30353 1.08057 3.15479 0.824208 2.89003C0.567849 2.62528 0.423828 2.26619 0.423828 1.89176V1.89176C0.423828 1.51734 0.567849 1.15825 0.824208 0.893496C1.08057 0.628739 1.42826 0.48 1.79081 0.48V0.395294Z" stroke="white" stroke-miterlimit="10"/>
<path d="M9.405 5.64706H12.6174V9.37412H9.405C8.92644 9.37412 8.46748 9.17779 8.12909 8.82831C7.79069 8.47883 7.60059 8.00483 7.60059 7.51059C7.60059 7.01636 7.79069 6.54236 8.12909 6.19288C8.46748 5.8434 8.92644 5.64706 9.405 5.64706V5.64706Z" stroke="white" stroke-miterlimit="10"/>
</g>
<defs>
<clipPath id="clip0_2_66">
<rect width="13" height="12" fill="white"/>
</clipPath>
</defs>
</svg>
